<svg version="1.1" id="Layer_1" xmlns="http://www.w3.org/2000/svg" xmlns:xlink="http://www.w3.org/1999/xlink" x="0px" y="0px"
	 width="200%" viewBox="0 0 400 400" enable-background="new 0 0 400 400" xml:space="preserve">
<path fill="#000002" opacity="1.000000" stroke="none" 
	d="
M215.000000,401.000000 
	C143.355576,401.000000 72.211136,401.000000 1.033354,401.000000 
	C1.033354,267.730560 1.033354,134.461121 1.033354,1.095843 
	C134.227707,1.095843 267.455505,1.095843 400.841675,1.095843 
	C400.841675,134.333191 400.841675,267.666565 400.841675,401.000000 
	C339.127869,401.000000 277.313934,401.000000 215.000000,401.000000 
M173.499908,352.836060 
	C210.928787,352.836060 248.357666,352.836060 285.952576,352.836060 
	C285.952576,326.402435 285.952576,300.517914 285.952576,274.237488 
	C279.678986,274.237488 273.755096,274.237488 267.275818,274.237488 
	C267.275818,202.991104 267.275818,132.139572 267.275818,61.200062 
	C249.718460,61.200062 232.730728,61.131618 215.745468,61.305557 
	C214.040131,61.323021 211.982361,62.431435 210.707596,63.670719 
	C190.941345,82.886719 166.645599,91.905441 139.822784,94.825546 
	C135.006912,95.349838 134.273834,96.935860 134.310471,101.148979 
	C134.477097,120.300140 134.334488,139.453949 134.311432,158.606812 
	C134.300934,167.333618 134.309662,176.060440 134.309662,186.030884 
	C145.181351,182.491669 155.086929,179.266968 165.205200,175.973038 
	C165.205200,208.753357 165.205200,241.339523 165.205200,274.332214 
	C155.042587,274.332214 145.123306,274.332214 134.890106,274.332214 
	C134.890106,300.653778 134.890106,326.569153 134.890106,352.836090 
	C147.581253,352.836090 160.040573,352.836090 173.499908,352.836060 
z"/>
<path fill="#F9F8F4" opacity="1.000000" stroke="none" 
	d="
M172.999908,352.836060 
	C160.040573,352.836090 147.581253,352.836090 134.890106,352.836090 
	C134.890106,326.569153 134.890106,300.653778 134.890106,274.332214 
	C145.123306,274.332214 155.042587,274.332214 165.205200,274.332214 
	C165.205200,241.339523 165.205200,208.753357 165.205200,175.973038 
	C155.086929,179.266968 145.181351,182.491669 134.309662,186.030884 
	C134.309662,176.060440 134.300934,167.333618 134.311432,158.606812 
	C134.334488,139.453949 134.477097,120.300140 134.310471,101.148979 
	C134.273834,96.935860 135.006912,95.349838 139.822784,94.825546 
	C166.645599,91.905441 190.941345,82.886719 210.707596,63.670719 
	C211.982361,62.431435 214.040131,61.323021 215.745468,61.305557 
	C232.730728,61.131618 249.718460,61.200062 267.275818,61.200062 
	C267.275818,132.139572 267.275818,202.991104 267.275818,274.237488 
	C273.755096,274.237488 279.678986,274.237488 285.952576,274.237488 
	C285.952576,300.517914 285.952576,326.402435 285.952576,352.836060 
	C248.357666,352.836060 210.928787,352.836060 172.999908,352.836060 
M255.063919,185.500015 
	C255.063919,148.222397 255.063919,110.944763 255.063919,73.392288 
	C243.123474,73.392288 231.667679,73.325554 220.215149,73.487839 
	C218.967667,73.505508 217.659317,74.737000 216.514557,75.587631 
	C209.729401,80.629433 203.351624,86.334641 196.149063,90.675575 
	C181.155716,99.711990 164.456665,104.076462 147.144958,106.243248 
	C147.144958,127.981842 147.144958,149.372284 147.144958,171.927353 
	C157.820526,167.229523 167.825165,162.826935 177.683105,158.488907 
	C177.683105,201.059586 177.683105,243.660706 177.683105,286.906006 
	C167.358658,286.906006 157.295792,286.906006 147.256165,286.906006 
	C147.256165,304.962036 147.256165,322.370819 147.256165,339.785950 
	C189.591904,339.785950 231.660202,339.785950 273.699097,339.785950 
	C273.699097,321.803864 273.699097,304.080353 273.699097,285.895691 
	C267.320221,285.895691 261.253601,285.895691 255.064499,285.895691 
	C255.064499,252.453842 255.064499,219.476944 255.063919,185.500015 
z"/>
<path fill="#040305" opacity="1.000000" stroke="none" 
	d="
M255.064209,186.000031 
	C255.064499,219.476944 255.064499,252.453842 255.064499,285.895691 
	C261.253601,285.895691 267.320221,285.895691 273.699097,285.895691 
	C273.699097,304.080353 273.699097,321.803864 273.699097,339.785950 
	C231.660202,339.785950 189.591904,339.785950 147.256165,339.785950 
	C147.256165,322.370819 147.256165,304.962036 147.256165,286.906006 
	C157.295792,286.906006 167.358658,286.906006 177.683105,286.906006 
	C177.683105,243.660706 177.683105,201.059586 177.683105,158.488907 
	C167.825165,162.826935 157.820526,167.229523 147.144958,171.927353 
	C147.144958,149.372284 147.144958,127.981842 147.144958,106.243248 
	C164.456665,104.076462 181.155716,99.711990 196.149063,90.675575 
	C203.351624,86.334641 209.729401,80.629433 216.514557,75.587631 
	C217.659317,74.737000 218.967667,73.505508 220.215149,73.487839 
	C231.667679,73.325554 243.123474,73.392288 255.063919,73.392288 
	C255.063919,110.944763 255.063919,148.222397 255.064209,186.000031 
M189.041626,144.532303 
	C189.041626,195.969269 189.041626,247.406235 189.041626,299.255463 
	C178.832077,299.255463 169.087769,299.255463 159.208817,299.255463 
	C159.208817,303.720734 159.208817,307.767944 159.208817,312.222076 
	C190.084274,312.222076 220.660492,312.222076 251.389587,312.222076 
	C251.389587,315.689911 251.389587,318.738098 251.389587,322.122406 
	C224.435104,322.122406 197.832397,322.122406 171.105133,322.122406 
	C171.105133,324.867798 171.105133,327.269226 171.105133,329.752930 
	C201.565979,329.752930 231.809982,329.752930 262.140198,329.752930 
	C262.140198,319.556549 262.140198,309.622040 262.140198,299.157288 
	C250.375931,299.157288 238.824783,299.157288 226.880783,299.157288 
	C226.880783,227.875656 226.880783,157.125015 226.880783,84.975990 
	C223.809464,86.430305 221.423294,87.199539 219.449463,88.564865 
	C214.269882,92.147629 209.511475,96.386505 204.151520,99.652061 
	C190.259827,108.115570 174.983017,113.127769 159.283905,116.262405 
	C159.283905,122.034210 159.283905,127.434326 159.283905,133.100525 
	C180.004501,128.314163 197.847458,118.712013 213.888535,105.048439 
	C213.801407,107.513741 213.405350,109.597137 212.526718,111.451942 
	C209.089081,118.708832 204.027328,125.061493 196.882263,128.336975 
	C189.581970,131.683640 187.952530,136.570282 189.041626,144.532303 
M236.361847,193.499512 
	C236.361847,224.911987 236.361847,256.324463 236.361847,287.639465 
	C239.483780,287.639465 242.085052,287.639465 244.732025,287.639465 
	C244.732025,220.340347 244.732025,153.326141 244.732025,86.391174 
	C241.885788,86.391174 239.449173,86.391174 236.357773,86.391174 
	C236.357773,121.933235 236.357773,157.216400 236.361847,193.499512 
M171.006012,140.479858 
	C167.065125,141.441986 163.124237,142.404114 159.302246,143.337219 
	C159.302246,146.597977 159.302246,149.610428 159.302246,153.439972 
	C164.382233,151.306824 168.876465,149.379166 173.403076,147.530792 
	C177.526932,145.846909 179.103958,143.047562 177.480927,138.543762 
	C175.554062,139.083771 173.670181,139.611725 171.006012,140.479858 
z"/>
<path fill="#FDFCF8" opacity="1.000000" stroke="none" 
	d="
M189.041702,144.039185 
	C187.952530,136.570282 189.581970,131.683640 196.882263,128.336975 
	C204.027328,125.061493 209.089081,118.708832 212.526718,111.451942 
	C213.405350,109.597137 213.801407,107.513741 213.888535,105.048439 
	C197.847458,118.712013 180.004501,128.314163 159.283905,133.100525 
	C159.283905,127.434326 159.283905,122.034210 159.283905,116.262405 
	C174.983017,113.127769 190.259827,108.115570 204.151520,99.652061 
	C209.511475,96.386505 214.269882,92.147629 219.449463,88.564865 
	C221.423294,87.199539 223.809464,86.430305 226.880783,84.975990 
	C226.880783,157.125015 226.880783,227.875656 226.880783,299.157288 
	C238.824783,299.157288 250.375931,299.157288 262.140198,299.157288 
	C262.140198,309.622040 262.140198,319.556549 262.140198,329.752930 
	C231.809982,329.752930 201.565979,329.752930 171.105133,329.752930 
	C171.105133,327.269226 171.105133,324.867798 171.105133,322.122406 
	C197.832397,322.122406 224.435104,322.122406 251.389587,322.122406 
	C251.389587,318.738098 251.389587,315.689911 251.389587,312.222076 
	C220.660492,312.222076 190.084274,312.222076 159.208817,312.222076 
	C159.208817,307.767944 159.208817,303.720734 159.208817,299.255463 
	C169.087769,299.255463 178.832077,299.255463 189.041626,299.255463 
	C189.041626,247.406235 189.041626,195.969269 189.041702,144.039185 
z"/>
<path fill="#F4F5F0" opacity="1.000000" stroke="none" 
	d="
M236.359802,192.999542 
	C236.357773,157.216400 236.357773,121.933235 236.357773,86.391174 
	C239.449173,86.391174 241.885788,86.391174 244.732025,86.391174 
	C244.732025,153.326141 244.732025,220.340347 244.732025,287.639465 
	C242.085052,287.639465 239.483780,287.639465 236.361847,287.639465 
	C236.361847,256.324463 236.361847,224.911987 236.359802,192.999542 
z"/>
<path fill="#F6F6F2" opacity="1.000000" stroke="none" 
	d="
M171.396164,140.309769 
	C173.670181,139.611725 175.554062,139.083771 177.480927,138.543762 
	C179.103958,143.047562 177.526932,145.846909 173.403076,147.530792 
	C168.876465,149.379166 164.382233,151.306824 159.302246,153.439972 
	C159.302246,149.610428 159.302246,146.597977 159.302246,143.337219 
	C163.124237,142.404114 167.065125,141.441986 171.396164,140.309769 
z"/>
</svg>