<svg version="1.1" id="Layer_1" xmlns="http://www.w3.org/2000/svg" xmlns:xlink="http://www.w3.org/1999/xlink" x="0px" y="0px"
	 width="100%" viewBox="0 0 400 400" enable-background="new 0 0 400 400" xml:space="preserve">
<path fill="#FEFFFF" opacity="1.000000" stroke="none" 
	d="
M221.000000,401.000000 
	C147.333328,401.000000 74.166664,401.000000 1.000000,401.000000 
	C1.000000,267.666656 1.000000,134.333328 1.000000,1.000000 
	C134.333328,1.000000 267.666656,1.000000 401.000000,1.000000 
	C401.000000,134.333328 401.000000,267.666656 401.000000,401.000000 
	C341.166656,401.000000 281.333344,401.000000 221.000000,401.000000 
M275.898407,352.809174 
	C278.591675,352.738403 281.284943,352.667633 284.708771,352.779144 
	C285.264069,351.060425 286.289764,349.345276 286.302917,347.622375 
	C286.457916,327.299927 286.459503,306.976288 286.505432,286.652985 
	C286.533386,274.280090 286.536499,274.280060 274.385742,274.372925 
	C267.521271,274.425385 267.516296,274.425385 267.519287,267.687012 
	C267.549286,200.552414 267.582672,133.417816 267.602051,66.283226 
	C267.602509,64.676704 267.451447,63.070145 267.368530,61.413387 
	C263.558594,61.413387 260.261841,61.413387 256.058929,61.201054 
	C251.047775,61.281002 246.036606,61.360950 240.115158,61.190598 
	C232.289505,61.171448 224.447678,60.865921 216.647934,61.305889 
	C214.276611,61.439655 212.021286,63.630058 209.282303,64.988068 
	C209.282303,64.988068 209.035736,65.357613 208.413422,65.510910 
	C198.384567,72.238564 188.355728,78.966217 177.842972,85.608650 
	C177.499634,85.653740 177.220642,85.812149 176.241470,86.107208 
	C163.984314,89.060066 151.792313,92.344513 139.432251,94.773796 
	C135.467377,95.553062 134.179001,96.510239 134.195999,100.541725 
	C134.308365,127.191658 134.181412,153.842575 134.161392,180.493179 
	C134.160339,181.897171 134.422562,183.301361 134.649261,185.580658 
	C139.977798,183.976028 144.671997,182.562424 149.718140,181.195786 
	C149.718140,181.195786 150.000214,180.980103 150.775406,181.020950 
	C155.352798,179.362900 159.930176,177.704849 164.594833,176.015182 
	C164.914230,177.275269 165.141022,177.753738 165.141815,178.232590 
	C165.193069,209.004105 165.205688,239.775696 165.294464,270.547089 
	C165.302612,273.375671 164.143402,274.350128 161.424957,274.311493 
	C154.107651,274.207489 146.779099,274.469543 139.473206,274.158661 
	C135.428070,273.986511 134.418869,275.416016 134.444885,279.294617 
	C134.600006,302.413666 134.569519,325.534607 134.448059,348.654114 
	C134.429428,352.199371 135.387665,353.725128 139.749466,352.820068 
	C140.491837,352.753235 141.234192,352.686371 142.889954,352.857697 
	C175.972946,352.870209 209.055969,352.907318 242.138931,352.881317 
	C253.100372,352.872711 264.061676,352.701630 275.898407,352.809174 
z"/>
<path fill="#189576" opacity="1.000000" stroke="none" 
	d="
M177.005997,86.083878 
	C177.220642,85.812149 177.499634,85.653740 178.517609,85.735611 
	C189.069839,83.596413 196.742203,77.299469 204.683029,71.609108 
	C206.628296,70.215149 207.610672,67.477501 209.035736,65.357620 
	C209.035736,65.357613 209.282303,64.988068 209.915527,64.965950 
	C214.335403,64.293373 218.100983,63.323730 221.913971,63.071968 
	C226.859085,62.745445 231.846115,63.103214 236.805908,62.918755 
	C238.228775,62.865837 239.619827,61.957195 241.025452,61.440907 
	C246.036606,61.360950 251.047775,61.281002 256.543701,61.558617 
	C257.352722,62.277863 257.676971,62.639545 258.006195,63.379646 
	C258.278168,65.304901 258.545135,66.851738 258.874298,68.758720 
	C256.780487,68.097954 255.222504,67.606277 252.481400,66.741234 
	C253.839066,68.926498 254.296417,70.679939 255.199020,70.951088 
	C261.257050,72.770905 259.983398,77.621201 259.984711,81.910423 
	C260.003540,143.180344 260.018372,204.450317 259.936279,265.720123 
	C259.932159,268.790100 258.773071,271.850861 258.679657,274.931946 
	C258.639862,276.244659 259.650513,278.372711 260.715820,278.798279 
	C265.054382,280.531342 269.607819,281.721527 274.063080,283.170074 
	C275.754211,283.719910 277.446381,284.321869 279.034485,285.109039 
	C279.776123,285.476624 280.745514,286.340607 280.746429,286.980804 
	C280.747345,287.635651 279.764496,288.388641 279.076324,288.923920 
	C278.146118,289.647491 276.213989,290.213593 276.220581,290.831207 
	C276.270844,295.557953 276.687775,300.280823 276.992432,305.473022 
	C276.994171,316.067383 276.994171,326.193573 276.994171,336.319763 
	C277.665222,336.321075 278.336273,336.322418 279.007324,336.323761 
	C279.007324,325.883728 279.007324,315.443695 279.378967,304.933533 
	C280.501282,301.953979 281.118958,299.001495 282.043152,296.148224 
	C282.835846,293.700806 283.979156,291.366913 284.978058,289.432495 
	C284.667847,293.646118 284.032196,297.414581 284.086975,301.173035 
	C284.233490,311.229156 284.722687,321.279907 284.952179,331.335632 
	C284.987640,332.888489 284.371368,334.456238 283.684265,336.050781 
	C278.951294,341.931824 273.003937,342.325287 266.204712,342.155853 
	C247.899902,341.699738 229.576279,341.999939 211.260117,342.000000 
	C196.440674,342.000031 181.620773,341.939789 166.802246,342.056213 
	C164.142288,342.077087 161.304886,343.633240 158.867798,343.079468 
	C153.097244,341.768219 148.826721,345.249725 149.570312,351.009277 
	C146.755432,351.547302 144.365997,352.083405 141.976562,352.619507 
	C141.234192,352.686371 140.491837,352.753235 139.312378,352.426880 
	C137.916534,350.717957 136.132004,349.408539 136.121964,348.085632 
	C135.951462,325.594391 136.045441,303.101257 135.955521,280.609070 
	C135.941589,277.123474 137.289505,275.876160 140.699051,275.949585 
	C147.693512,276.100250 154.694901,276.075409 161.690247,275.948212 
	C163.697433,275.911774 165.693726,275.277283 167.429138,274.964844 
	C167.251740,271.800659 167.011993,269.492981 167.009781,267.185120 
	C166.982941,239.194412 166.992264,211.203629 166.989532,183.212875 
	C166.988510,172.576935 166.996490,172.601089 157.456207,176.982986 
	C155.657867,177.808990 153.683487,178.252518 151.887894,179.083359 
	C151.128677,179.434677 150.621796,180.331329 150.000214,180.980103 
	C150.000214,180.980103 149.718140,181.195786 149.074326,181.121155 
	C147.100449,181.040833 145.761551,180.932663 144.441772,181.046356 
	C136.744247,181.709503 136.234268,181.262924 135.993271,173.349838 
	C135.978088,172.851395 135.990051,172.352112 135.990067,171.853210 
	C135.990891,148.737610 136.118484,125.620735 135.884048,102.507523 
	C135.838058,97.973404 137.450546,96.481636 141.669449,95.917534 
	C149.482025,94.872940 157.328033,93.719643 164.957169,91.803543 
	C169.185577,90.741562 173.003204,88.044136 177.005997,86.083878 
M274.057312,295.545624 
	C274.057312,292.470398 274.057312,289.395142 274.057312,285.767578 
	C267.213470,285.767578 261.308807,285.767578 254.852844,285.767578 
	C254.852844,214.650208 254.852844,144.103378 254.852844,73.271133 
	C242.970917,73.271133 231.665802,73.166809 220.367340,73.394020 
	C218.835632,73.424828 217.109268,74.879837 215.859497,76.078369 
	C205.480164,86.032143 193.566269,93.617752 179.966522,98.126617 
	C169.330734,101.652802 158.366104,104.187233 147.149628,107.271767 
	C147.149628,127.922821 147.149628,149.196411 147.149628,171.899368 
	C157.725006,167.303925 167.616684,163.005569 177.566650,158.681900 
	C177.688889,159.352356 177.854858,159.838577 177.855209,160.324936 
	C177.884018,201.150589 177.874634,241.976334 177.966949,282.801819 
	C177.974014,285.926422 176.782837,286.822144 173.837204,286.779602 
	C165.059113,286.652863 156.278000,286.734131 147.360474,286.734131 
	C147.360474,304.937531 147.360474,322.301849 147.360474,339.731812 
	C189.678696,339.731812 231.583176,339.731812 274.054962,339.731812 
	C274.054962,325.106995 274.054962,310.819183 274.057312,295.545624 
z"/>
<path fill="#2B9A7E" opacity="1.000000" stroke="none" 
	d="
M258.001221,63.001221 
	C257.676971,62.639545 257.352722,62.277863 256.996796,61.664783 
	C260.261841,61.413387 263.558594,61.413387 267.368530,61.413387 
	C267.451447,63.070145 267.602509,64.676704 267.602051,66.283226 
	C267.582672,133.417816 267.549286,200.552414 267.519287,267.687012 
	C267.516296,274.425385 267.521271,274.425385 274.385742,274.372925 
	C286.536499,274.280060 286.533386,274.280090 286.505432,286.652985 
	C286.459503,306.976288 286.457916,327.299927 286.302917,347.622375 
	C286.289764,349.345276 285.264069,351.060425 284.344666,352.291504 
	C283.992462,350.207855 284.004364,348.611847 284.018341,346.556122 
	C284.032440,342.736603 284.044464,339.376862 284.056488,336.017090 
	C284.371368,334.456238 284.987640,332.888489 284.952179,331.335632 
	C284.722687,321.279907 284.233490,311.229156 284.086975,301.173035 
	C284.032196,297.414581 284.667847,293.646118 284.983948,289.015503 
	C285.102936,284.136627 284.540771,280.580170 279.134979,279.556488 
	C280.129669,279.156677 281.124390,278.756866 282.119080,278.357056 
	C281.855133,277.948456 281.591217,277.539825 281.327271,277.131195 
	C278.560638,277.131195 275.718201,276.727997 273.046021,277.230377 
	C269.476654,277.901398 266.900330,277.075562 265.321472,273.703796 
	C265.743622,271.427765 265.986664,269.448883 265.987274,267.469910 
	C266.008301,202.150650 266.006287,136.831375 266.006317,71.512115 
	C266.006317,70.012604 266.371979,68.371521 265.881592,67.051018 
	C265.324280,65.550247 263.995209,64.336067 262.584869,62.995029 
	C260.779175,62.995575 259.390198,62.998398 258.001221,63.001221 
z"/>
<path fill="#2B9A7E" opacity="1.000000" stroke="none" 
	d="
M150.387817,181.000534 
	C150.621796,180.331329 151.128677,179.434677 151.887894,179.083359 
	C153.683487,178.252518 155.657867,177.808990 157.456207,176.982986 
	C166.996490,172.601089 166.988510,172.576935 166.989532,183.212875 
	C166.992264,211.203629 166.982941,239.194412 167.009781,267.185120 
	C167.011993,269.492981 167.251740,271.800659 167.429138,274.964844 
	C165.693726,275.277283 163.697433,275.911774 161.690247,275.948212 
	C154.694901,276.075409 147.693512,276.100250 140.699051,275.949585 
	C137.289505,275.876160 135.941589,277.123474 135.955521,280.609070 
	C136.045441,303.101257 135.951462,325.594391 136.121964,348.085632 
	C136.132004,349.408539 137.916534,350.717957 138.949646,352.328308 
	C135.387665,353.725128 134.429428,352.199371 134.448059,348.654114 
	C134.569519,325.534607 134.600006,302.413666 134.444885,279.294617 
	C134.418869,275.416016 135.428070,273.986511 139.473206,274.158661 
	C146.779099,274.469543 154.107651,274.207489 161.424957,274.311493 
	C164.143402,274.350128 165.302612,273.375671 165.294464,270.547089 
	C165.205688,239.775696 165.193069,209.004105 165.141815,178.232590 
	C165.141022,177.753738 164.914230,177.275269 164.594833,176.015182 
	C159.930176,177.704849 155.352798,179.362900 150.387817,181.000534 
z"/>
<path fill="#189576" opacity="1.000000" stroke="none" 
	d="
M284.016266,347.015869 
	C284.004364,348.611847 283.992462,350.207855 283.979370,352.200348 
	C281.284943,352.667633 278.591675,352.738403 275.325562,352.346558 
	C272.856934,351.592957 270.961578,351.050964 269.065399,351.048187 
	C233.711823,350.996155 198.358154,351.008240 163.056839,350.613342 
	C165.090317,349.480530 167.064087,348.117676 169.053680,348.094147 
	C207.373444,347.640839 245.695038,347.344574 284.016266,347.015869 
z"/>
<path fill="#2B9A7E" opacity="1.000000" stroke="none" 
	d="
M176.623734,86.095543 
	C173.003204,88.044136 169.185577,90.741562 164.957169,91.803543 
	C157.328033,93.719643 149.482025,94.872940 141.669449,95.917534 
	C137.450546,96.481636 135.838058,97.973404 135.884048,102.507523 
	C136.118484,125.620735 135.990891,148.737610 135.990067,171.853210 
	C135.990051,172.352112 135.978088,172.851395 135.993271,173.349838 
	C136.234268,181.262924 136.744247,181.709503 144.441772,181.046356 
	C145.761551,180.932663 147.100449,181.040833 148.898346,181.097656 
	C144.671997,182.562424 139.977798,183.976028 134.649261,185.580658 
	C134.422562,183.301361 134.160339,181.897171 134.161392,180.493179 
	C134.181412,153.842575 134.308365,127.191658 134.195999,100.541725 
	C134.179001,96.510239 135.467377,95.553062 139.432251,94.773796 
	C151.792313,92.344513 163.984314,89.060066 176.623734,86.095543 
z"/>
<path fill="#2B9A7E" opacity="1.000000" stroke="none" 
	d="
M163.004501,351.006866 
	C198.358154,351.008240 233.711823,350.996155 269.065399,351.048187 
	C270.961578,351.050964 272.856934,351.592957 274.887878,352.244385 
	C264.061676,352.701630 253.100372,352.872711 242.138931,352.881317 
	C209.055969,352.907318 175.972946,352.870209 142.433258,352.738586 
	C144.365997,352.083405 146.755432,351.547302 149.904404,351.008850 
	C151.109299,351.004730 151.554642,351.002991 152.416748,351.003601 
	C154.222733,351.003571 155.611969,351.001190 157.429810,351.001587 
	C159.573761,351.005249 161.289124,351.006073 163.004501,351.006866 
z"/>
<path fill="#2B9A7E" opacity="1.000000" stroke="none" 
	d="
M208.724579,65.434265 
	C207.610672,67.477501 206.628296,70.215149 204.683029,71.609108 
	C196.742203,77.299469 189.069839,83.596413 178.759552,85.778214 
	C188.355728,78.966217 198.384567,72.238564 208.724579,65.434265 
z"/>
<path fill="#2B9A7E" opacity="1.000000" stroke="none" 
	d="
M240.570312,61.315758 
	C239.619827,61.957195 238.228775,62.865837 236.805908,62.918755 
	C231.846115,63.103214 226.859085,62.745445 221.913971,63.071968 
	C218.100983,63.323730 214.335403,64.293373 210.130783,64.911171 
	C212.021286,63.630058 214.276611,61.439655 216.647934,61.305889 
	C224.447678,60.865921 232.289505,61.171448 240.570312,61.315758 
z"/>
<path fill="#F2FCFB" opacity="1.000000" stroke="none" 
	d="
M274.056152,296.038483 
	C274.054962,310.819183 274.054962,325.106995 274.054962,339.731812 
	C231.583176,339.731812 189.678696,339.731812 147.360474,339.731812 
	C147.360474,322.301849 147.360474,304.937531 147.360474,286.734131 
	C156.278000,286.734131 165.059113,286.652863 173.837204,286.779602 
	C176.782837,286.822144 177.974014,285.926422 177.966949,282.801819 
	C177.874634,241.976334 177.884018,201.150589 177.855209,160.324936 
	C177.854858,159.838577 177.688889,159.352356 177.566650,158.681900 
	C167.616684,163.005569 157.725006,167.303925 147.149628,171.899368 
	C147.149628,149.196411 147.149628,127.922821 147.149628,107.271767 
	C158.366104,104.187233 169.330734,101.652802 179.966522,98.126617 
	C193.566269,93.617752 205.480164,86.032143 215.859497,76.078369 
	C217.109268,74.879837 218.835632,73.424828 220.367340,73.394020 
	C231.665802,73.166809 242.970917,73.271133 254.852844,73.271133 
	C254.852844,144.103378 254.852844,214.650208 254.852844,285.767578 
	C261.308807,285.767578 267.213470,285.767578 274.057312,285.767578 
	C274.057312,289.395142 274.057312,292.470398 274.056152,296.038483 
M158.921906,304.644440 
	C158.921906,306.925812 158.921906,309.207184 158.921906,312.068237 
	C190.068558,312.068237 220.620956,312.068237 251.464752,312.068237 
	C251.464752,315.552216 251.464752,318.449005 251.464752,321.955750 
	C224.661911,321.955750 198.108322,321.955750 171.364685,321.955750 
	C171.364685,324.924805 171.364685,327.277191 171.364685,329.701752 
	C201.708099,329.701752 231.623398,329.701752 262.244110,329.701752 
	C262.244110,321.664124 262.227753,313.890106 262.248993,306.116119 
	C262.267883,299.209991 262.286316,299.224945 255.182968,299.236572 
	C245.923965,299.251740 236.664948,299.240295 226.963928,299.240295 
	C226.963928,296.658661 226.964218,294.857422 226.963882,293.056152 
	C226.951416,225.918365 226.950226,158.780563 226.864517,91.642860 
	C226.862244,89.865059 225.941391,88.088425 225.448914,86.311241 
	C223.535904,87.003296 221.213074,87.221596 219.776459,88.464340 
	C210.487915,96.499512 200.262909,103.028343 188.798141,107.336082 
	C179.204895,110.940628 169.342773,113.829651 159.277176,117.141632 
	C159.277176,121.985947 159.277176,127.242958 159.277176,132.857956 
	C179.713379,128.663055 196.864563,118.705750 213.291656,104.976181 
	C213.005722,107.321823 213.023041,108.296112 212.757645,109.186119 
	C209.757690,119.247101 202.633713,125.772217 193.714539,130.399628 
	C190.061813,132.294724 188.967209,134.551041 188.976868,138.530930 
	C189.101929,190.008530 189.056168,241.486542 189.053558,292.964447 
	C189.053467,294.898804 189.053543,296.833191 189.053543,299.193634 
	C180.022278,299.193634 171.719208,299.342285 163.425812,299.123840 
	C159.882324,299.030487 158.489578,300.285461 158.921906,304.644440 
M236.422531,176.501221 
	C236.422531,213.433777 236.422531,250.366318 236.422531,287.518677 
	C239.377731,287.518677 241.931320,287.518677 244.668442,287.518677 
	C244.668442,220.310486 244.668442,153.466461 244.668442,86.687416 
	C236.703171,85.556137 236.699478,85.556129 236.676758,93.037720 
	C236.593323,120.525513 236.512558,148.013306 236.422531,176.501221 
M169.374054,140.941299 
	C166.023697,141.758362 162.673325,142.575439 159.307312,143.396317 
	C159.307312,146.586945 159.307312,149.478470 159.307312,153.423218 
	C164.654800,151.133118 169.329468,149.103943 174.026581,147.128189 
	C177.769974,145.553604 178.857086,142.920959 177.234406,138.690659 
	C174.874588,139.390106 172.528473,140.085510 169.374054,140.941299 
z"/>
<path fill="#0B9573" opacity="1.000000" stroke="none" 
	d="
M258.006195,63.379642 
	C259.390198,62.998398 260.779175,62.995575 262.707520,63.333668 
	C263.165405,66.138702 263.014771,68.602768 263.013092,71.066940 
	C262.995483,97.014114 263.001312,122.961319 263.001343,148.908508 
	C263.001404,188.827271 262.975922,228.746109 263.088318,268.664551 
	C263.093353,270.445129 264.353699,272.222168 265.029358,274.000854 
	C266.900330,277.075562 269.476654,277.901398 273.046021,277.230377 
	C275.718201,276.727997 278.560638,277.131195 281.327271,277.131195 
	C281.591217,277.539825 281.855133,277.948456 282.119080,278.357056 
	C281.124390,278.756866 280.129669,279.156677 279.134979,279.556488 
	C284.540771,280.580170 285.102936,284.136627 284.973267,288.565826 
	C283.979156,291.366913 282.835846,293.700806 282.043152,296.148224 
	C281.118958,299.001495 280.501282,301.953979 279.042816,304.932373 
	C277.886902,305.002502 277.438812,305.003693 276.990692,305.004883 
	C276.687775,300.280823 276.270844,295.557953 276.220581,290.831207 
	C276.213989,290.213593 278.146118,289.647491 279.076324,288.923920 
	C279.764496,288.388641 280.747345,287.635651 280.746429,286.980804 
	C280.745514,286.340607 279.776123,285.476624 279.034485,285.109039 
	C277.446381,284.321869 275.754211,283.719910 274.063080,283.170074 
	C269.607819,281.721527 265.054382,280.531342 260.715820,278.798279 
	C259.650513,278.372711 258.639862,276.244659 258.679657,274.931946 
	C258.773071,271.850861 259.932159,268.790100 259.936279,265.720123 
	C260.018372,204.450317 260.003540,143.180344 259.984711,81.910423 
	C259.983398,77.621201 261.257050,72.770905 255.199020,70.951088 
	C254.296417,70.679939 253.839066,68.926498 252.481400,66.741234 
	C255.222504,67.606277 256.780487,68.097954 258.874298,68.758720 
	C258.545135,66.851738 258.278168,65.304901 258.006195,63.379642 
z"/>
<path fill="#0D9572" opacity="1.000000" stroke="none" 
	d="
M163.056839,350.613342 
	C161.289124,351.006073 159.573761,351.005249 157.361938,350.641663 
	C154.950104,348.542328 153.198898,347.911713 152.000000,351.001221 
	C151.554642,351.002991 151.109299,351.004730 150.329834,351.006897 
	C148.826721,345.249725 153.097244,341.768219 158.867798,343.079468 
	C161.304886,343.633240 164.142288,342.077087 166.802246,342.056213 
	C181.620773,341.939789 196.440674,342.000031 211.260117,342.000000 
	C229.576279,341.999939 247.899902,341.699738 266.204712,342.155853 
	C273.003937,342.325287 278.951294,341.931824 283.684265,336.050781 
	C284.044464,339.376862 284.032440,342.736603 284.018341,346.556122 
	C245.695038,347.344574 207.373444,347.640839 169.053680,348.094147 
	C167.064087,348.117676 165.090317,349.480530 163.056839,350.613342 
z"/>
<path fill="#0A9673" opacity="1.000000" stroke="none" 
	d="
M276.992432,305.473022 
	C277.438812,305.003693 277.886902,305.002502 278.671173,305.002502 
	C279.007324,315.443695 279.007324,325.883728 279.007324,336.323761 
	C278.336273,336.322418 277.665222,336.321075 276.994171,336.319763 
	C276.994171,326.193573 276.994171,316.067383 276.992432,305.473022 
z"/>
<path fill="#189576" opacity="1.000000" stroke="none" 
	d="
M265.321472,273.703796 
	C264.353699,272.222168 263.093353,270.445129 263.088318,268.664551 
	C262.975922,228.746109 263.001404,188.827271 263.001343,148.908508 
	C263.001312,122.961319 262.995483,97.014114 263.013092,71.066940 
	C263.014771,68.602768 263.165405,66.138702 263.124207,63.335945 
	C263.995209,64.336067 265.324280,65.550247 265.881592,67.051018 
	C266.371979,68.371521 266.006317,70.012604 266.006317,71.512115 
	C266.006287,136.831375 266.008301,202.150650 265.987274,267.469910 
	C265.986664,269.448883 265.743622,271.427765 265.321472,273.703796 
z"/>
<path fill="#189576" opacity="1.000000" stroke="none" 
	d="
M152.416748,351.003601 
	C153.198898,347.911713 154.950104,348.542328 156.933350,350.638824 
	C155.611969,351.001190 154.222733,351.003571 152.416748,351.003601 
z"/>
<path fill="#159575" opacity="1.000000" stroke="none" 
	d="
M158.927643,304.182037 
	C158.489578,300.285461 159.882324,299.030487 163.425812,299.123840 
	C171.719208,299.342285 180.022278,299.193634 189.053543,299.193634 
	C189.053543,296.833191 189.053467,294.898804 189.053558,292.964447 
	C189.056168,241.486542 189.101929,190.008530 188.976868,138.530930 
	C188.967209,134.551041 190.061813,132.294724 193.714539,130.399628 
	C202.633713,125.772217 209.757690,119.247101 212.757645,109.186119 
	C213.023041,108.296112 213.005722,107.321823 213.291656,104.976181 
	C196.864563,118.705750 179.713379,128.663055 159.277176,132.857956 
	C159.277176,127.242958 159.277176,121.985947 159.277176,117.141632 
	C169.342773,113.829651 179.204895,110.940628 188.798141,107.336082 
	C200.262909,103.028343 210.487915,96.499512 219.776459,88.464340 
	C221.213074,87.221596 223.535904,87.003296 225.448914,86.311249 
	C225.941391,88.088425 226.862244,89.865059 226.864517,91.642860 
	C226.950226,158.780563 226.951416,225.918365 226.963882,293.056152 
	C226.964218,294.857422 226.963928,296.658661 226.963928,299.240295 
	C236.664948,299.240295 245.923965,299.251740 255.182968,299.236572 
	C262.286316,299.224945 262.267883,299.209991 262.248993,306.116119 
	C262.227753,313.890106 262.244110,321.664124 262.244110,329.701752 
	C231.623398,329.701752 201.708099,329.701752 171.364685,329.701752 
	C171.364685,327.277191 171.364685,324.924805 171.364685,321.955750 
	C198.108322,321.955750 224.661911,321.955750 251.464752,321.955750 
	C251.464752,318.449005 251.464752,315.552216 251.464752,312.068237 
	C220.620956,312.068237 190.068558,312.068237 158.921906,312.068237 
	C158.921906,309.207184 158.921906,306.925812 158.927643,304.182037 
z"/>
<path fill="#1E9678" opacity="1.000000" stroke="none" 
	d="
M236.426666,176.001160 
	C236.512558,148.013306 236.593323,120.525513 236.676758,93.037720 
	C236.699478,85.556129 236.703171,85.556137 244.668442,86.687416 
	C244.668442,153.466461 244.668442,220.310486 244.668442,287.518677 
	C241.931320,287.518677 239.377731,287.518677 236.422531,287.518677 
	C236.422531,250.366318 236.422531,213.433777 236.426666,176.001160 
z"/>
<path fill="#299679" opacity="1.000000" stroke="none" 
	d="
M169.778198,140.861099 
	C172.528473,140.085510 174.874588,139.390106 177.234406,138.690659 
	C178.857086,142.920959 177.769974,145.553604 174.026581,147.128189 
	C169.329468,149.103943 164.654800,151.133118 159.307312,153.423218 
	C159.307312,149.478470 159.307312,146.586945 159.307312,143.396317 
	C162.673325,142.575439 166.023697,141.758362 169.778198,140.861099 
z"/>
</svg>