<?xml version="1.0" standalone="no"?>
<!DOCTYPE svg PUBLIC "-//W3C//DTD SVG 20010904//EN"
 "http://www.w3.org/TR/2001/REC-SVG-20010904/DTD/svg10.dtd">
<svg version="1.0" xmlns="http://www.w3.org/2000/svg"
 width="1920.000000pt" height="1080.000000pt" viewBox="0 0 1920.000000 1080.000000"
 preserveAspectRatio="xMidYMid meet">

<g transform="translate(0.000000,1080.000000) scale(0.100000,-0.100000)"
fill="#000000" stroke="none">
<path d="M7741 6029 c-90 -21 -166 -41 -169 -44 -3 -3 11 -11 30 -19 66 -28
63 2 66 -563 2 -346 -1 -526 -8 -554 -9 -31 -19 -44 -45 -56 -19 -9 -35 -20
-35 -25 0 -4 99 -8 220 -8 121 0 220 4 220 8 0 5 -15 15 -32 23 -60 26 -59 9
-57 660 1 328 -1 602 -5 608 -9 14 10 17 -185 -30z"/>
<path d="M8275 6059 c-51 -14 -87 -61 -93 -117 -9 -95 48 -152 150 -152 50 0
62 4 92 30 83 74 66 194 -34 234 -44 18 -69 19 -115 5z"/>
<path d="M9760 6038 c-194 -46 -200 -48 -200 -58 0 -5 11 -12 25 -16 14 -3 34
-18 45 -31 19 -25 20 -42 20 -550 0 -575 1 -568 -60 -593 -16 -7 -30 -16 -30
-21 0 -5 99 -9 220 -9 121 0 220 4 220 8 0 5 -16 16 -35 25 -57 27 -58 34 -53
684 4 494 2 583 -10 588 -7 3 -14 5 -15 4 -1 -1 -58 -14 -127 -31z"/>
<path d="M15153 6028 c-90 -22 -163 -43 -163 -48 0 -4 11 -11 25 -14 14 -4 34
-15 45 -26 19 -19 20 -36 20 -558 0 -589 2 -566 -60 -592 -16 -7 -30 -16 -30
-21 0 -5 101 -9 225 -9 203 0 267 7 203 23 -13 4 -32 13 -43 21 -20 14 -20 29
-25 638 -4 544 -7 623 -20 625 -8 1 -88 -17 -177 -39z"/>
<path d="M2705 6020 c-241 -35 -422 -198 -486 -435 -28 -104 -30 -296 -5 -400
54 -224 208 -384 422 -439 78 -20 213 -20 288 -1 159 42 302 156 369 295 57
118 71 185 71 340 0 153 -21 248 -77 354 -40 75 -134 172 -207 213 -105 59
-262 90 -375 73z m206 -61 c115 -64 153 -208 154 -579 0 -386 -40 -525 -168
-589 -98 -49 -244 -23 -302 53 -72 95 -97 229 -98 526 0 313 27 456 103 543
52 59 102 78 196 73 52 -2 83 -9 115 -27z"/>
<path d="M6992 6020 c-264 -37 -464 -210 -529 -460 -22 -86 -22 -279 0 -372
49 -203 186 -352 387 -421 70 -25 106 -31 205 -35 136 -5 227 9 347 55 l73 28
3 139 c2 124 1 138 -13 126 -8 -7 -15 -17 -15 -22 0 -5 -25 -60 -55 -123 -63
-131 -80 -145 -199 -166 -163 -28 -310 47 -380 196 -56 118 -81 319 -66 522
15 193 58 316 141 402 114 119 331 136 419 33 18 -20 55 -75 84 -121 29 -47
58 -87 64 -89 14 -4 16 54 6 160 l-7 67 -56 25 c-111 50 -283 73 -409 56z"/>
<path d="M12105 5988 c-3 -7 -41 -116 -84 -243 -216 -625 -311 -888 -328 -907
-10 -12 -37 -29 -60 -40 -24 -10 -43 -23 -43 -28 0 -6 52 -10 125 -10 69 0
125 3 125 8 0 4 -17 16 -38 27 -54 29 -54 59 4 226 l48 138 208 3 209 3 49
-151 c56 -170 56 -201 -1 -224 -16 -7 -29 -16 -29 -21 0 -5 106 -9 235 -9 129
0 235 4 235 9 0 5 -14 14 -30 21 -17 7 -40 25 -53 39 -13 17 -98 249 -217 599
l-195 572 -78 0 c-53 0 -79 -4 -82 -12z m58 -487 c48 -148 90 -276 93 -285 5
-14 -15 -16 -191 -16 -154 0 -196 3 -192 13 2 6 46 135 98 284 52 150 96 273
99 273 3 0 45 -121 93 -269z"/>
<path d="M4049 5680 c-59 -10 -138 -44 -196 -86 -25 -18 -50 -31 -55 -28 -4 3
-8 22 -8 43 0 20 -6 45 -13 55 -13 18 -21 16 -170 -33 -86 -29 -159 -56 -162
-60 -2 -5 13 -15 35 -24 26 -10 43 -25 50 -42 6 -15 10 -151 10 -331 0 -338
-3 -361 -59 -383 -17 -8 -31 -17 -31 -22 0 -5 97 -9 215 -9 198 0 252 7 195
25 -11 3 -29 18 -40 32 -19 25 -20 39 -20 358 0 331 0 332 23 352 70 65 186
84 242 39 l30 -24 3 -347 c3 -383 3 -385 -59 -407 -16 -5 -29 -14 -29 -19 0
-5 96 -9 220 -9 121 0 220 4 220 9 0 5 -14 14 -30 21 -17 7 -36 22 -43 34 -8
15 -13 121 -17 361 -5 326 -6 342 -27 381 -50 93 -156 136 -284 114z"/>
<path d="M4902 5675 c-172 -38 -314 -173 -351 -336 -16 -66 -13 -217 4 -284
22 -83 60 -147 122 -206 66 -62 136 -95 237 -110 174 -26 334 35 428 165 49
68 29 78 -37 17 -90 -83 -265 -96 -366 -28 -70 47 -114 147 -121 277 l-3 55
280 5 280 5 -1 90 c0 75 -5 100 -26 147 -53 116 -149 187 -278 208 -80 12 -89
12 -168 -5z m154 -41 c60 -29 77 -77 82 -231 l4 -133 -165 0 -165 0 4 63 c17
224 67 316 172 317 19 0 50 -7 68 -16z"/>
<path d="M9038 5680 c-117 -21 -191 -58 -273 -139 -91 -90 -124 -182 -125
-342 0 -253 138 -421 378 -460 174 -29 354 49 427 184 28 52 11 57 -38 10 -68
-66 -99 -78 -202 -78 -77 0 -98 4 -140 25 -116 60 -171 232 -147 462 14 127
33 183 79 238 44 51 85 70 152 70 64 0 71 -12 71 -125 0 -67 5 -95 21 -126 36
-72 133 -90 188 -34 22 21 26 35 26 78 -1 97 -73 182 -185 220 -58 19 -172 28
-232 17z"/>
<path d="M13383 5680 c-51 -7 -113 -28 -200 -66 -6 -3 -14 7 -18 25 -4 17 -11
34 -17 37 -11 7 -328 -96 -328 -106 0 -3 19 -14 43 -25 l42 -20 3 -555 c2
-410 -1 -561 -9 -577 -7 -12 -27 -27 -46 -34 -18 -6 -33 -15 -33 -20 0 -5 96
-9 230 -9 127 0 230 4 230 8 0 5 -18 14 -39 20 -62 19 -71 49 -71 247 l0 167
23 -6 c187 -56 369 -38 471 46 57 47 111 137 132 220 29 113 25 299 -9 401
-62 191 -199 274 -404 247z m38 -93 c69 -47 93 -103 110 -262 25 -242 -23
-457 -115 -514 -38 -24 -119 -28 -192 -10 l-44 11 0 380 0 379 43 19 c62 27
155 26 198 -3z"/>
<path d="M14457 5680 c-47 -8 -110 -29 -194 -66 -6 -3 -14 7 -18 25 -4 17 -11
34 -17 37 -11 7 -328 -96 -328 -106 0 -3 19 -14 43 -25 l42 -20 3 -559 c2
-557 2 -560 -19 -582 -11 -12 -32 -25 -45 -28 -13 -4 -24 -11 -24 -16 0 -6 86
-10 230 -10 127 0 230 2 230 5 0 3 -20 14 -44 24 -60 26 -66 49 -66 249 l0
164 23 -6 c12 -4 64 -15 116 -24 150 -25 272 0 361 75 52 44 106 135 126 215
28 108 25 289 -5 388 -61 201 -205 292 -414 260z m44 -93 c40 -27 75 -76 89
-126 19 -66 32 -235 25 -326 -13 -178 -51 -283 -119 -324 -39 -24 -133 -29
-197 -9 l-39 11 0 378 0 378 22 12 c68 36 170 39 219 6z"/>
<path d="M8267 5627 c-86 -28 -156 -56 -154 -61 2 -6 18 -14 36 -18 20 -6 35
-18 41 -34 6 -14 10 -166 10 -348 0 -307 -1 -325 -20 -349 -11 -13 -31 -28
-45 -31 -14 -4 -25 -11 -25 -16 0 -6 83 -10 223 -9 176 0 218 3 203 12 -10 7
-31 22 -45 34 l-26 21 0 424 c0 416 0 423 -20 425 -11 0 -91 -22 -178 -50z"/>
<path d="M10230 5651 c0 -5 14 -14 30 -20 61 -21 45 -45 -155 -231 -112 -104
-182 -176 -178 -183 3 -7 78 -112 165 -234 l159 -223 164 0 c91 0 165 4 165 9
0 5 -13 14 -29 20 -50 21 -81 59 -369 463 -34 47 -62 90 -62 96 0 5 59 64 131
131 108 99 142 125 190 142 33 12 59 26 59 30 0 5 -61 9 -135 9 -74 0 -135 -4
-135 -9z"/>
<path d="M15490 5650 c0 -5 15 -16 33 -23 17 -8 39 -23 48 -33 9 -11 101 -221
204 -468 153 -368 186 -454 181 -479 -4 -17 -24 -68 -46 -113 -52 -107 -69
-114 -125 -52 -66 74 -120 93 -189 64 -44 -18 -66 -51 -66 -98 0 -87 55 -133
160 -133 116 0 188 63 270 237 32 69 153 391 326 868 60 166 68 179 124 203
28 12 50 25 50 29 0 4 -58 8 -130 8 -71 0 -130 -4 -130 -8 0 -5 18 -16 40 -25
39 -15 45 -25 40 -72 -2 -17 -145 -424 -182 -518 -10 -26 -18 -11 -111 230
-61 159 -100 273 -101 298 -1 36 2 41 36 60 21 11 38 23 38 28 0 4 -106 7
-235 7 -148 0 -235 -4 -235 -10z"/>
<path d="M5660 5042 c-59 -26 -100 -88 -100 -150 0 -89 66 -156 154 -156 135
0 211 146 130 251 -14 18 -38 40 -54 48 -30 15 -103 19 -130 7z"/>
<path d="M10804 5031 c-127 -77 -97 -260 49 -296 67 -17 166 43 183 111 11 42
-2 109 -26 142 -45 61 -143 81 -206 43z"/>
<path d="M16684 5031 c-76 -46 -102 -135 -62 -211 32 -58 77 -84 145 -84 59 0
93 19 131 74 46 69 14 188 -62 224 -46 22 -114 20 -152 -3z"/>
</g>
</svg>
